<?xml version="1.0" encoding="UTF-8"?>
<svg id="Layer_1" xmlns="http://www.w3.org/2000/svg" version="1.1" viewBox="0 0 90 90">
  <!-- Generator: Adobe Illustrator 29.6.1, SVG Export Plug-In . SVG Version: 2.1.1 Build 9)  -->
  <defs>
    <style>
      .st0 {
        fill: #35b0e5;
      }
    </style>
  </defs>
  <path class="st0" d="M38.95,7.87c5.6-.24,12.12,1.1,14.33,6.9,2.49,6.57.31,13.81-4.65,18.54-.76-.05-1.48-.31-2.24-.4-1.23-.14-2.44-.07-3.64.15-.88.15-1.71.49-2.59.65-1.74-1.91-3.59-3.71-6.02-4.74-4.65-1.99-13.41-.32-14.79-7.02-1.99-9.61,12.43-13.79,19.59-14.09h.02v.02h0Z"/>
  <path class="st0" d="M33.33,50.42c-1.9,1.42-3.7,3.43-4.68,5.61-2.09,4.61-.49,13.31-6.69,15.02-7.99,2.21-12.3-7.47-13.76-13.64-1.59-6.78-1.57-17.52,6.34-20.28,6.54-2.28,13.63-.15,18.27,4.78-.03.78-.33,1.55-.4,2.34-.17,2.12.18,4.19.91,6.17Z"/>
  <path class="st0" d="M69.04,19.75c6.94-.78,10.51,6.17,12.21,11.8,2.07,6.84,2.8,18.82-5.23,22.11-6.17,2.54-14.05.58-18.57-4.25-.05-.07-.17-.13-.2-.21-.15-.35.31-1.96.35-2.5.15-2.07-.15-4.1-.9-6.02,1.98-1.71,3.77-3.59,4.81-6.04,1.98-4.65.41-14.08,7.54-14.88h0v-.02.02Z"/>
  <path class="st0" d="M50.53,56.89c.93,1.25,2.26,2.39,3.6,3.2,3.94,2.44,7.23,1.59,11.28,2.85,7.76,2.42,6.59,10.49.75,14.51-7.51,5.16-26.1,8.34-29.64-2.92-1.93-6.12-.21-12.63,4.26-17.13,3.19,1.13,6.69.88,9.76-.53h0v.02h0Z"/>
  <path class="st0" d="M44.47,34.29c8.15-.42,14.01,7.96,10.89,15.5-3.5,8.47-15.37,9.36-20,1.43-4.28-7.3.69-16.5,9.11-16.93ZM44.27,40.01c-7.47.9-5.47,12.58,1.97,10.89,6.67-1.52,5.06-11.73-1.97-10.89Z"/>
  <path class="st0" d="M44.27,40.01c7.03-.86,8.65,9.36,1.97,10.89-7.44,1.71-9.44-9.97-1.97-10.89ZM44.37,41.44c-5.01.65-4.33,8.5.88,8.15,5.21-.33,4.89-8.9-.88-8.15Z"/>
</svg>