<?xml version="1.0" encoding="UTF-8"?>
<svg id="Layer_1" xmlns="http://www.w3.org/2000/svg" version="1.1" viewBox="0 0 90 90">
  <!-- Generator: Adobe Illustrator 29.6.1, SVG Export Plug-In . SVG Version: 2.1.1 Build 9)  -->
  <defs>
    <style>
      .st0 {
        fill: #35b0e5;
      }
    </style>
  </defs>
  <path class="st0" d="M88.68,66.97c-.73,7.55-6.8,13.64-14.38,14.34h-38.98c-8.1-.69-13.37-8.8-10.53-16.52,1.54-4.16,5.39-7.23,9.78-7.84-.77-7.1,3.02-14.07,9.32-17.33,9.85-5.11,22.03.07,24.85,10.77,6.5-1.66,13.21.72,17.06,6.16,1.5,2.13,2.65,5.07,2.87,7.69v2.75-.03h0Z"/>
  <path class="st0" d="M1.32,46.74v-.78c.33-.85.82-1.27,1.74-1.36,2.79.16,5.88-.26,8.63,0,2.51.22,2.43,3.34.2,3.54-2.9.26-6.18-.2-9.12,0-.73-.12-1.22-.69-1.43-1.37h0v-.04h0,0Z"/>
  <path class="st0" d="M31.05,54.3c-2.47.85-4.81,2.36-6.47,4.39-.2.13-1.31-.66-1.54-.82-6.83-4.72-8.05-14.49-2.53-20.73,5.53-6.25,15.3-6.32,20.86-.13.04.13-.07.16-.16.22-.53.39-1.22.72-1.8,1.15-4.97,3.72-8.14,9.7-8.36,15.93Z"/>
  <path class="st0" d="M50.48,24.89c1.67-.27,2.74,1.63,1.64,2.91-2.04,1.83-3.9,4.23-5.98,6.01-.79.69-1.49,1.12-2.49.43-.87-.6-1.04-1.61-.44-2.49l6.42-6.44c.23-.19.58-.36.85-.42h0Z"/>
  <path class="st0" d="M16.99,58.26c1.74-.36,2.87,1.57,1.74,2.91-2.09,1.74-4.11,4.64-6.24,6.24-1.87,1.41-3.9-.61-2.58-2.38,2.14-1.8,4.17-4.68,6.32-6.34.19-.13.55-.38.76-.42h0Z"/>
  <path class="st0" d="M30.54,16.73c.92-.17,1.99.23,2.16,1.22.2,1.24.03,2.39.03,3.62,0,1.94.27,4.03,0,5.98-.24,1.76-3.2,1.87-3.43-.19-.32-2.9.23-6.35,0-9.32.16-.6.6-1.18,1.25-1.31h0Z"/>
  <path class="st0" d="M10.91,24.89c.44-.07.98,0,1.36.27l6.63,6.63c1.02,1.64-.78,3.56-2.45,2.45l-6.58-6.57c-.81-.99-.2-2.57,1.05-2.78h-.02Z"/>
</svg>