<?xml version="1.0" encoding="UTF-8"?>
<svg id="Layer_1" xmlns="http://www.w3.org/2000/svg" version="1.1" viewBox="0 0 100 100">
  <!-- Generator: Adobe Illustrator 29.6.1, SVG Export Plug-In . SVG Version: 2.1.1 Build 9)  -->
  <defs>
    <style>
      .st0 {
        fill: none;
      }

      .st1 {
        fill: #35b0e5;
      }
    </style>
  </defs>
  <path class="st1" d="M91.74,68.2c-.39.37-.81,2.14-1.19,2.81-6.74,12.31-19.03,17.99-32.86,14.55l-8.02-16.5-7.45,16.59-7.79,1.05c-9.32-.32-17.98-4.6-23.17-12.41-1.33-2.01-2.56-5.91-3.57-7.26-.71-.95-3.8-.92-5.44-4.58-.94-2.09-1.01-10.3-.61-12.7s2.32-4.32,4.3-5.63c1.66-1.1,1.82-1.27,3.3-2.47,11.5-9.26,43.26-9.2,57.52-7.49,7.44.9,19.52,2.96,24.73,8.6.39.43.43,1.07.8,1.44,1.06,1.07,3.14,1.28,4.62,3.39,1.95,2.78,1.76,9.55,1.48,12.98-.27,3.23-1.78,5.15-4.49,6.73-.62.35-1.82.54-2.19.87h0,0ZM60.32,82.15c10.62,2.39,22.18-3.14,26.82-12.96,2.96-6.25.51-16.42,1.33-23.38-.21-1.57-2.4-2.66-3.75-3.3-14.94-7.28-54.18-7.1-69.26-.1-1.95.9-4.07,1.73-4.28,4.05-.37,4-.49,15.06.09,18.85.25,1.68,2.07,5.09,3.06,6.57,5.67,8.54,15.25,12.22,25.34,10.29l6.85-15.11c1.67-2.58,4.72-2.69,6.64-.32l7.18,15.43h0,0Z"/>
  <path class="st0" d="M60.32,82.15l-7.18-15.43c-1.91-2.37-4.97-2.25-6.64.32l-6.85,15.11c-10.1,1.94-19.66-1.75-25.34-10.29-.99-1.48-2.78-4.87-3.06-6.57-.59-3.78-.47-14.85-.09-18.85.23-2.33,2.34-3.15,4.28-4.05,15.06-6.98,54.32-7.18,69.26.1,1.34.66,3.54,1.73,3.75,3.3-.82,6.96,1.62,17.12-1.33,23.38-4.64,9.81-16.2,15.35-26.82,12.96h0ZM84.55,46.7c-11.68-5.16-25.15-5.8-37.77-5.67l-24.37,34.14c4.37,2.8,9.17,4.2,14.44,3.38,2.95-4.12,5.01-14.45,9.72-16.56,4.78-2.18,8.53.21,10.74,4.43,2.07,3.93,3.54,8.28,5.55,12.24,5.57.58,10.78-.59,15.17-4.12,2.53-2.04,6.29-6.79,6.59-10.08.51-5.63-.35-12.06-.06-17.75h0v-.02ZM35.88,41.84c-6.98.53-14.47,1.73-20.67,5.12l-.16,17.48,1.62,4,19.23-26.61h0v.02Z"/>
  <path class="st1" d="M84.63,64.45c-.29,3.27-4.06,8.03-6.6,10.08-4.38,3.52-9.6,4.7-15.16,4.12-2.01-3.97-3.48-8.31-5.55-12.25-2.22-4.21-5.96-6.59-10.74-4.43-4.7,2.14-6.77,12.45-9.72,16.56-5.24.84-10.06-.58-14.42-3.37-1.33-1.23-2.94-2.92-4.45-5.16-1.38-2.05-2.3-3.99-2.94-5.58.06-5.82.11-11.65.16-17.48,2.9-1.3,6.25-2.59,10.06-3.63,8.43-2.3,15.93-2.59,21.52-2.3,12.62-.14,26.09.52,37.77,5.67-.28,5.69.58,12.12.08,17.75h0Z"/>
</svg>