<?xml version="1.0" encoding="UTF-8"?>
<svg id="Layer_3" xmlns="http://www.w3.org/2000/svg" version="1.1" viewBox="0 0 278.97 90.36">
  <!-- Generator: Adobe Illustrator 29.6.1, SVG Export Plug-In . SVG Version: 2.1.1 Build 9)  -->
  <defs>
    <style>
      .st0 {
        fill: #e0e0e0;
      }
    </style>
  </defs>
  <path class="st0" d="M81.68,45.67c0,22.53-18.27,40.8-40.8,40.8h0C18.34,86.47.07,68.2.07,45.67H.07C.07,23.14,18.34,4.87,40.87,4.87h0c22.53,0,40.8,18.27,40.8,40.8h0ZM51.16,40.45h-9.52v-7.97c0-2.52,2.03-4.55,4.53-4.55h5.67c.62,0,1.13-.51,1.13-1.14v-6.83c0-.63-.51-1.14-1.13-1.14h-7.93c-6.26,0-11.34,5.1-11.34,11.38v10.24h-6.8c-.62,0-1.13.51-1.13,1.14v6.83c0,.63.51,1.14,1.13,1.14h6.8v22.33c2.02.41,4.1.62,6.24.62.96,0,1.9-.04,2.83-.13v-22.82h8.84c.92,0,1.69-.69,1.8-1.6l.68-5.46c.13-1.09-.71-2.05-1.8-2.05h0Z"/>
  <path class="st0" d="M278.84,45.67c0,22.53-18.27,40.8-40.8,40.8h0c-22.53,0-40.8-18.27-40.8-40.8h0c0-22.53,18.27-40.8,40.8-40.8h0c22.53,0,40.8,18.27,40.8,40.8h0ZM249.1,24.27h-22.14c-5.7,0-10.33,4.63-10.33,10.33v22.14c0,5.7,4.63,10.33,10.33,10.33h22.14c5.7,0,10.33-4.63,10.33-10.33v-22.14c0-5.7-4.63-10.33-10.33-10.33ZM255.75,56c0,4.07-3.31,7.38-7.38,7.38h-20.66c-4.07,0-7.38-3.31-7.38-7.38v-20.66c0-4.07,3.31-7.38,7.38-7.38h20.66c4.07,0,7.38,3.31,7.38,7.38,0,0,0,20.66,0,20.66ZM238.06,34.6c-6.11,0-11.07,4.96-11.07,11.07s4.96,11.07,11.07,11.07,11.07-4.96,11.07-11.07-4.96-11.07-11.07-11.07ZM238.06,53.05c-4.07,0-7.38-3.31-7.38-7.38s3.31-7.38,7.38-7.38,7.38,3.31,7.38,7.38-3.31,7.38-7.38,7.38ZM252.07,33.86c0-1.22-.99-2.21-2.21-2.21s-2.21.99-2.21,2.21.99,2.21,2.21,2.21,2.21-.99,2.21-2.21Z"/>
  <path class="st0" d="M180.26,45.67c0,22.53-18.27,40.8-40.8,40.8h0c-22.53,0-40.8-18.27-40.8-40.8h0c0-22.53,18.27-40.8,40.8-40.8h0c22.53,0,40.8,18.27,40.8,40.8h0ZM145.34,41.92l16.51-17.65h-6.27l-12.96,13.86-9.92-13.86h-17.14l17.35,24.24-17.35,18.56h6.27l13.81-14.77,10.57,14.77h17.14l-18.01-25.15h0ZM124.4,28.81h5.98l24.14,33.72h-5.98l-24.14-33.72Z"/>
</svg>