<?xml version="1.0" encoding="UTF-8"?>
<svg id="smith" xmlns="http://www.w3.org/2000/svg" viewBox="0 0 100 56.17">
  <defs>
    <style>
      .cls-1 {
        fill: #fff;
      }
    </style>
  </defs>
  <path class="cls-1" d="M22.66,20.21c-2.36-1.43-5.09-2.6-7.89-2.76-3.37-.19-6.57.34-9.14,2.63-.34.3-1.04.96-1.09,1.41.07,1.19-.09,2.47,0,3.65.03.35.09.66.4.85.44.27,1.32.5,1.84.71,5.61,2.31,10.99,5.2,15.89,8.78v-3.57c-3.13-2.39-6.69-4.32-10.24-6.01-1.31-.63-2.91-1.17-4.15-1.84-1.41-.76-.6-1.72.42-2.32,1.8-1.07,4.88-1.21,6.91-.94,2.53.34,4.95,1.43,7.06,2.81v-3.39ZM47.66,17.97h-3.36l-7.34,10.57-7.34-10.57h-3.36v20.42h3.39v-15l7.32,10.68,7.32-10.68v15h3.39v-20.42ZM55,17.97h-3.39v20.42h3.39v-20.42ZM74.64,17.97h-15.91l-.08.08v2.76l.08.08h6.22v17.5h3.44v-17.5h6.25v-2.92ZM81.56,17.97h-3.39v20.42h3.39v-8.28h10.57v8.28h3.36l.08-.08v-20.26l-.08-.08h-3.36v9.17h-10.57v-9.17ZM4.53,32.4v3.7c4.82,3.05,11.12,3.64,16.35,1.25-.99-.82-2.09-1.51-3.21-2.13-3.72.88-7.43.25-10.78-1.51l-2.36-1.31Z"/>
  <polygon class="cls-1" points="47.66 17.97 47.66 38.39 44.27 38.39 44.27 23.39 36.95 34.06 29.64 23.39 29.64 38.39 26.25 38.39 26.25 17.97 29.61 17.97 36.95 28.54 44.3 17.97 47.66 17.97"/>
  <polygon class="cls-1" points="81.56 17.97 81.56 27.14 92.14 27.14 92.14 17.97 95.49 17.97 95.57 18.05 95.57 38.31 95.49 38.39 92.14 38.39 92.14 30.1 81.56 30.1 81.56 38.39 78.18 38.39 78.18 17.97 81.56 17.97"/>
  <path class="cls-1" d="M22.66,20.21v3.39c-2.12-1.38-4.53-2.47-7.06-2.81-2.03-.27-5.11-.13-6.91.94-1.01.6-1.82,1.56-.42,2.32,1.24.67,2.84,1.21,4.15,1.84,3.55,1.69,7.12,3.62,10.24,6.01v3.57c-4.9-3.57-10.28-6.46-15.89-8.78-.52-.22-1.4-.44-1.84-.71-.31-.19-.37-.5-.4-.85-.09-1.18.07-2.46,0-3.65.05-.45.75-1.1,1.09-1.41,2.57-2.29,5.77-2.82,9.14-2.63,2.8.16,5.53,1.33,7.89,2.76Z"/>
  <polygon class="cls-1" points="74.64 17.97 74.64 20.89 68.39 20.89 68.39 38.39 64.95 38.39 64.95 20.89 58.72 20.89 58.65 20.81 58.65 18.05 58.72 17.97 74.64 17.97"/>
  <rect class="cls-1" x="51.61" y="17.97" width="3.39" height="20.42"/>
  <path class="cls-1" d="M4.53,32.4l2.36,1.31c3.35,1.76,7.06,2.39,10.78,1.51,1.13.61,2.23,1.31,3.21,2.13-5.23,2.39-11.53,1.8-16.35-1.25v-3.7Z"/>
</svg>